PathFileType	4	(X/Y/Z)	D:\TRACE\v60_Jaco2_6-2-23\ArmBodyNoDRS_DMP_1-platform.trc
DataRate	CameraRate	NumFrames	NumMarkers	Units	OrigDataRate	OrigDataStartFrame	OrigNumFrames
100.00	100.00	      68	5	mm	100.00	1994	      5315
Frame#	Time	Left_Front			Right_Front			Left_Aft			Right_Aft			Post			
		X1	Y1	Z1	X2	Y2	Z2	X3	Y3	Z3	X4	Y4	Z4	X5	Y5	Z5	

1994	19.930				780.25146	9.70273	-632.73584	-719.46796	6.73470	480.91354	698.07861	8.99051	583.34033	2.99330	1307.49988	-966.05072	
1995	19.940				780.29529	9.62751	-632.67908	-719.43628	6.59080	480.77011	697.03699	8.08939	583.28094	3.18108	1307.47583	-966.02026	
1996	19.950				780.28943	9.61270	-632.67163	-719.51318	6.70599	481.06967	697.23889	8.17433	583.16516	3.24767	1307.46411	-965.97919	
1997	19.960				780.29578	9.67140	-632.67676	-719.47150	6.72712	481.06421	697.52698	8.49991	583.27057	3.24384	1307.52625	-965.93524	
1998	19.970				780.27795	9.76300	-632.72864	-719.13928	6.31553	481.11234	697.74445	8.68494	583.33746	3.13500	1307.58276	-965.99896	
1999	19.980				780.22253	9.72985	-632.79132	-719.50726	6.74270	480.97211	697.82867	8.76775	583.32910	3.05612	1307.59021	-965.98517	
2000	19.990				780.28632	9.69871	-632.71442	-719.17120	6.21239	481.17322	697.82983	8.72136	583.33759	3.14761	1307.58618	-965.88074	
2001	20.000				780.24060	9.65704	-632.77026	-719.50079	6.67354	481.06213	697.85785	8.74100	583.38446	3.14959	1307.46216	-965.83521	
2002	20.010				780.26538	9.64773	-632.70435	-719.80585	7.18731	480.55453	697.83923	8.79757	583.37683	3.21896	1307.48010	-965.80157	
2003	20.020				780.29803	9.73022	-632.73889	-719.50940	6.88193	480.78870	697.83270	8.79607	583.36206	3.12887	1307.50403	-965.81299	
2004	20.030				780.33020	9.74652	-632.73956	-719.41364	6.77451	480.87622	697.83368	8.80458	583.31940	3.13247	1307.53540	-965.84076	
2005	20.040				780.30035	9.69706	-632.71118	-719.46588	6.73720	480.87418	697.86285	8.77557	583.35547	3.07220	1307.50952	-965.86292	
2006	20.050				780.24640	9.61812	-632.72009	-719.62250	6.86958	480.90048	697.85974	8.78198	583.37097	3.20678	1307.50208	-965.84839	
2007	20.060				780.28540	9.64072	-632.64667	-719.46509	6.73793	480.97098	697.81958	8.78328	583.38318	3.21305	1307.50537	-965.88562	
2008	20.070				780.25085	9.78269	-632.74927	-719.48169	6.79093	480.89099	697.84369	8.79314	583.35663	3.12555	1307.55225	-965.91608	
2009	20.080				780.31421	10.00367	-632.73993	-719.45569	6.78874	480.86304	697.82690	8.81084	583.33228	3.14971	1307.55310	-966.01782	
2010	20.090				780.27509	9.98706	-632.83191	-719.44781	6.78936	480.86823	697.92572	8.76100	583.31445	3.11917	1307.61670	-966.04218	
2011	20.100				780.25018	9.78831	-632.77191	-719.58563	6.94019	480.90588	697.92828	8.71751	583.34387	3.02446	1307.59045	-965.98999	
2012	20.110				780.30719	9.75967	-632.78583	-719.45123	6.79492	480.89380	697.89899	8.78197	583.36987	3.18168	1307.42798	-965.87286	
2013	20.120				780.28296	9.66200	-632.77832	-719.48724	6.77764	480.84525	697.75775	8.88157	583.28125	3.23109	1307.28625	-965.92230	
2014	20.130				780.30988	9.77419	-632.78259	-719.47510	6.77678	480.82727	697.83313	8.77782	583.27875	3.28027	1307.31592	-965.93683	
2015	20.140				780.31274	9.77697	-632.80884	-719.47302	6.89141	480.86594	697.84113	8.83609	583.25647	3.19751	1307.41956	-966.06781	
2016	20.150				780.32581	9.77480	-632.77454	-719.41931	6.86200	480.89111	697.93591	8.84396	583.28076	3.03261	1307.53479	-966.23938	
2017	20.160				780.32153	9.86201	-632.79657	-719.57922	6.97914	480.90393	697.95959	8.72518	583.32806	3.12135	1307.59729	-966.33838	
2018	20.170				780.32050	9.77950	-632.73779	-719.45929	6.71368	480.92093	698.01599	8.79384	583.20703	3.14938	1307.56116	-966.35260	
2019	20.180				780.22675	9.79259	-632.73975	-719.65582	6.88953	480.91360	698.10382	8.91658	583.36768	3.08176	1307.50671	-966.33380	
2020	20.190				780.29749	9.81675	-632.75171	-719.64508	6.93017	480.89038	698.16229	8.88832	583.37854	3.16637	1307.55127	-966.28455	
2021	20.200				780.31573	9.89490	-632.76917	-719.56824	7.02290	480.93210	698.17590	8.93673	583.39142	3.18014	1307.55408	-966.09613	
2022	20.210				780.35187	9.92077	-632.75104	-719.39319	6.86084	480.89108	698.19360	9.03484	583.35760	3.12526	1307.56042	-965.91827	
2023	20.220				780.27142	9.76288	-632.82568	-719.50043	6.85836	480.77744	698.07257	9.00621	583.32080	3.20105	1307.40552	-965.81238	
2024	20.230				780.27313	9.74149	-632.73627	-719.68286	7.02003	480.63138	698.03369	9.02466	583.29437	3.26587	1307.33704	-965.74872	
2025	20.240				780.23529	9.68347	-632.74310	-720.18475	7.86772	480.07977	697.42377	8.47698	583.36115	3.25409	1307.30627	-965.72003	
2026	20.250				780.35815	9.83703	-632.71429	-719.15356	6.35931	481.20572	697.90265	8.73139	583.35492	3.35980	1307.38464	-965.70618	
2027	20.260				780.42706	9.88037	-632.70978	-719.38831	6.76174	481.04880	697.96716	8.72768	583.34583	3.26644	1307.57886	-965.87256	
2028	20.270				780.31445	9.92434	-632.80609	-719.41705	6.74999	481.00967	697.90240	8.74376	583.33148	3.12492	1307.63660	-966.02844	
2029	20.280				780.26697	9.81144	-632.78528	-719.76233	7.05037	480.66849	697.71826	8.66152	583.43121	3.02498	1307.59216	-966.05511	
2030	20.290				780.21808	9.77673	-632.76044	-719.76044	6.98030	480.75571	697.32404	8.30600	583.46106	3.02356	1307.52319	-966.15222	
2031	20.300				780.28296	9.76293	-632.74084	-719.49969	6.80767	480.94745	697.09680	8.11695	583.45801	3.21575	1307.45618	-966.07477	
2032	20.310				780.35571	9.83720	-632.74902	-719.55127	6.99832	480.93732	698.22095	8.99218	583.41595	3.25116	1307.52661	-966.05957	
2033	20.320				780.36279	9.86858	-632.74896	-719.37103	6.87127	480.90045	698.11377	9.02961	583.36493	3.21798	1307.51501	-966.05737	
2034	20.330				780.32867	9.78408	-632.75775	-719.46008	6.84125	480.87698	698.09766	8.97879	583.30951	3.10342	1307.51294	-966.10205	
2035	20.340				780.22363	9.72057	-632.80463	-719.50696	6.76086	480.89093	698.12598	8.94232	583.34003	3.07605	1307.39514	-966.04022	
2036	20.350				780.22479	9.69472	-632.76440	-719.47607	6.73771	480.95029	698.14020	8.90993	583.35876	3.15043	1307.44397	-966.01459	
2037	20.360				780.22351	9.80265	-632.81079	-719.57831	6.96650	480.94977	698.15228	8.88083	583.40234	3.23387	1307.50085	-965.96674	
2038	20.370				780.27075	9.89131	-632.81042	-719.40326	6.82749	480.88910	698.17651	8.91049	583.40558	3.19098	1307.63110	-966.04028	
2039	20.380				780.33453	9.94918	-632.73914	-719.43018	6.84893	480.81430	698.17255	8.92233	583.37445	3.12519	1307.63306	-966.02545	
2040	20.390				780.29608	9.84603	-632.78546	-719.50146	6.80799	480.84805	698.18042	8.89841	583.32776	3.16872	1307.56702	-965.90521	
2041	20.400				780.29077	9.78600	-632.77148	-719.49426	6.72117	480.88760	698.17603	8.90010	583.34076	3.21165	1307.45911	-965.82306	
2042	20.410				780.21161	9.70189	-632.80994	-719.47565	6.73342	480.95462	698.43805	9.09314	583.23938	3.24135	1307.40625	-965.73767	
2043	20.420				780.25635	9.77263	-632.83386	-719.44189	6.82697	480.94299	698.07416	8.85688	583.16821	3.32902	1307.39197	-965.70953	
2044	20.430				780.35120	9.86687	-632.76752	-719.47272	6.90055	480.90424	697.98199	8.85142	583.20996	3.29822	1307.44946	-965.82196	
2045	20.440				780.33191	9.80118	-632.78387	-719.62646	7.00313	480.84113	697.90186	8.78076	583.30389	3.26380	1307.48145	-965.90869	
2046	20.450				780.21600	9.79065	-632.85370	-719.48840	6.75997	480.93747	697.91632	8.72183	583.33569	3.20103	1307.48157	-965.99457	
2047	20.460				780.27295	9.73220	-632.70929	-719.47540	6.71544	481.03235	697.89563	8.72530	583.35712	3.10973	1307.55383	-966.08069	
2048	20.470				780.32263	9.82132	-632.70117	-719.46112	6.73733	480.99207	697.87482	8.74559	583.38416	3.21519	1307.55737	-966.18329	
2049	20.480				780.28754	10.01181	-632.74475	-719.43579	6.76072	480.93677	697.83624	8.77496	583.35034	3.06937	1307.57727	-966.24548	
2050	20.490				780.36145	9.99766	-632.75378	-719.59686	7.03712	480.85806	697.93024	8.79570	583.30432	3.02662	1307.60498	-966.23389	
2051	20.500				780.32568	9.62643	-632.68958	-719.58398	7.02635	480.85776	697.91083	8.76027	583.35638	2.92327	1307.55957	-966.14520	
2052	20.510				780.50452	9.26351	-632.71478	-719.63873	6.93377	480.86517	697.84436	8.84454	583.36060	3.15652	1307.41724	-965.92047	
2053	20.520				780.21722	9.59913	-632.74945	-719.55078	6.87780	480.77258	697.80414	8.83655	583.38849	3.32015	1307.38000	-965.88843	
2054	20.530				780.23938	9.66302	-632.81708	-719.73553	7.10283	480.39227	697.87378	8.73375	583.37305	3.36937	1307.32227	-965.84009	
2055	20.540				780.23767	9.71842	-632.77881	-719.16815	6.32951	481.06686	697.88568	8.78962	583.33856	3.05070	1307.52063	-965.91248	
2056	20.550				780.30859	9.63501	-632.76459	-719.45404	6.73167	481.03232	697.97998	8.74593	583.31293	3.01831	1307.65186	-966.01947	
2057	20.560				780.35217	9.75734	-632.76959	-719.14539	6.32318	481.12811	697.97839	8.74226	583.33923	3.06439	1307.62524	-965.95782	
2058	20.570				780.29242	9.71655	-632.72504	-719.47626	6.59303	481.10245	697.81061	8.85991	583.38074	3.23828	1307.42017	-965.86938	
2059	20.580				780.21356	9.48928	-632.70477	-719.40796	6.40819	480.87192	697.80786	8.78052	583.40436	3.21752	1307.43250	-965.84912	
2060	20.590				780.33575	9.61041	-632.67383	-719.46936	6.71339	480.91074	697.84241	8.74699	583.40594	3.19717	1307.43884	-965.84900	
2061	20.600				780.25922	9.76310	-632.81158	-719.56177	7.00015	480.89084	697.95642	8.77489	583.33899	3.22512	1307.50647	-965.93097	
